<svg width="20" height="20" viewBox="0 0 20 20" fill="none" xmlns="http://www.w3.org/2000/svg">
<path d="M10 0C4.48209 0 0 4.48208 0 10C0 15.5179 4.48209 20 10 20C15.5179 20 20 15.5179 20 10C20 4.48208 15.5179 0 10 0ZM10 0.833333C15.0675 0.833333 19.1667 4.9325 19.1667 10C19.1667 15.0676 15.0675 19.1667 10 19.1667C4.93245 19.1667 0.833333 15.0676 0.833333 10C0.833333 4.9325 4.93245 0.833333 10 0.833333ZM6.46159 5.00651C6.23103 5.00954 5.99927 5.10086 5.82031 5.27995C4.08265 7.01753 5.34594 10.6194 7.36816 12.6416C9.24331 14.5167 12.9565 15.9609 14.7298 14.1878C15.0878 13.8298 15.0903 13.2576 14.7412 12.9085L13.4896 11.6553C13.1405 11.3063 12.5715 11.3152 12.2135 11.6732L11.5674 12.3193C11.2095 12.6773 10.633 12.6774 10.2751 12.3193L7.69043 9.7347C7.33251 9.37695 7.33255 8.80038 7.69043 8.44238L8.33659 7.79622C8.69457 7.43831 8.69706 6.86447 8.34798 6.5153L7.09635 5.26367C6.92184 5.08913 6.69214 5.00348 6.46159 5.00651Z" fill="black"/>
</svg>
