<svg width="18" height="18" viewBox="0 0 18 18" fill="none" xmlns="http://www.w3.org/2000/svg">
<path d="M2.32258 12.7742H4.93549C5.25531 12.7742 5.51614 12.5134 5.51614 12.1936C5.51614 11.8738 5.2553 11.6129 4.93549 11.6129H2.32258C1.68071 11.6129 1.16129 11.0935 1.16129 10.4516V2.32258C1.16129 1.68071 1.68071 1.16129 2.32258 1.16129H13.0645C13.7064 1.16129 14.2258 1.68071 14.2258 2.32258V3.48388C14.2258 3.80369 14.4867 4.06452 14.8065 4.06452C15.1263 4.06452 15.3871 3.80368 15.3871 3.48388V2.32258C15.3871 1.0422 14.3449 0 13.0645 0H2.32258C1.0422 0 0 1.0422 0 2.32258V10.4516C0 11.732 1.0422 12.7742 2.32258 12.7742Z" fill="black"/>
<path d="M0.580646 17.4194H5.80646C6.12628 17.4194 6.3871 17.1585 6.3871 16.8387C6.3871 16.5189 6.12627 16.2581 5.80646 16.2581H0.580646C0.260826 16.2581 0 16.5189 0 16.8387C0 17.1585 0.260838 17.4194 0.580646 17.4194Z" fill="black"/>
<path d="M13.517 7.26157H13.1972C10.6795 7.34549 8.7085 9.38342 8.7085 11.9032C8.7085 13.8777 10.0059 15.5436 11.3328 17.0791C11.8408 17.6654 12.5757 18 13.3537 18C14.1316 18 14.8665 17.6632 15.3712 17.0791C16.7003 15.5436 17.9988 13.8798 17.9988 11.9032C17.9988 9.3856 16.0301 7.34779 13.516 7.26157H13.517ZM14.4957 16.3194C14.2088 16.6505 13.7926 16.8388 13.3548 16.8388C12.9159 16.8388 12.5009 16.6505 12.2139 16.3194C11.03 14.9494 9.87095 13.4796 9.87095 11.9032C9.87095 10.0128 11.3521 8.48295 13.2393 8.42286H13.2744H13.3618H13.4457H13.4774C15.3611 8.4841 16.8388 10.014 16.8388 11.9032C16.8388 13.4796 15.6808 14.9482 14.4957 16.3194Z" fill="black"/>
<path d="M13.9357 11.9033C13.9357 12.6778 12.7744 12.6778 12.7744 11.9033C12.7744 11.1287 13.9357 11.1287 13.9357 11.9033Z" fill="black"/>
</svg>
