<svg width="19" height="20" viewBox="0 0 19 20" fill="none" xmlns="http://www.w3.org/2000/svg">
<path d="M9.13043 -3.05176e-05C8.8903 -3.05176e-05 8.69565 0.194622 8.69565 0.434752V2.17388C8.69565 2.41401 8.8903 2.60866 9.13043 2.60866C9.37057 2.60866 9.56522 2.41401 9.56522 2.17388V0.434752C9.56522 0.194622 9.37057 -3.05176e-05 9.13043 -3.05176e-05ZM2.98235 2.54752C2.87107 2.54752 2.76154 2.59169 2.67663 2.6766C2.50685 2.84638 2.50685 3.11821 2.67663 3.28801L3.90626 4.51763C4.076 4.68742 4.34787 4.68742 4.51765 4.51763C4.68746 4.34785 4.68746 4.07602 4.51765 3.90622L3.28804 2.6766C3.20315 2.59169 3.09359 2.54752 2.98235 2.54752ZM15.2785 2.54752C15.1673 2.54752 15.0577 2.59169 14.9728 2.6766L13.7432 3.90622C13.5734 4.07602 13.5734 4.34785 13.7432 4.51763C13.913 4.68742 14.1848 4.68742 14.3546 4.51763L15.5842 3.28801C15.754 3.11821 15.754 2.84638 15.5842 2.6766C15.4993 2.59169 15.3898 2.54752 15.2785 2.54752ZM9.13043 3.47823C6.25444 3.47823 3.47826 5.71416 3.47826 8.87905C3.47826 10.8749 4.25515 12.1433 4.97283 13.1589C5.6905 14.1745 6.30435 14.9206 6.30435 16.0869V18.6956C6.30435 19.4335 6.91615 20 7.6087 20H10.6522C11.3447 20 11.9565 19.4335 11.9565 18.6956V16.0869C11.9565 14.9206 12.5704 14.1745 13.288 13.1589C14.0057 12.1433 14.7826 10.8749 14.7826 8.87905C14.7826 5.71416 12.0064 3.47823 9.13043 3.47823ZM9.13043 4.3478C11.5567 4.3478 13.913 6.22554 13.913 8.87905C13.913 10.6579 13.2769 11.6722 12.5815 12.6562C11.9571 13.5398 11.2522 14.4144 11.1141 15.6521H7.14674C7.00872 14.4144 6.30376 13.5398 5.67935 12.6562C4.98398 11.6722 4.34783 10.6579 4.34783 8.87905C4.34783 6.22554 6.70417 4.3478 9.13043 4.3478ZM8.64809 5.02714C6.59554 5.26656 5 7.01794 5 9.1304C5 9.55263 5.06554 9.95588 5.18343 10.3396C5.23211 10.5755 5.50322 10.7356 5.7337 10.6657C5.96417 10.5958 6.10278 10.3115 6.01222 10.0883C5.91913 9.78506 5.86957 9.46436 5.86957 9.1304C5.86957 7.45357 7.12148 6.07907 8.74322 5.88991C8.97085 5.87213 9.1618 5.64882 9.14402 5.42116C9.13685 5.12161 8.88261 5.01041 8.64809 5.02714ZM0.434783 8.69562C0.194652 8.69562 0 8.89027 0 9.1304C0 9.37053 0.194652 9.56519 0.434783 9.56519H2.17391C2.41404 9.56519 2.6087 9.37053 2.6087 9.1304C2.6087 8.89027 2.41404 8.69562 2.17391 8.69562H0.434783ZM16.087 8.69562C15.8468 8.69562 15.6522 8.89027 15.6522 9.1304C15.6522 9.37053 15.8468 9.56519 16.087 9.56519H17.8261C18.0662 9.56519 18.2609 9.37053 18.2609 9.1304C18.2609 8.89027 18.0662 8.69562 17.8261 8.69562H16.087ZM7.17391 16.5217H11.087V17.3913H7.17391V16.5217ZM7.17391 18.2608H11.087V18.6956C11.087 18.9569 10.8772 19.1304 10.6522 19.1304H7.6087C7.38363 19.1304 7.17391 18.9569 7.17391 18.6956V18.2608Z" fill="black"/>
</svg>
