<svg width="22" height="22" viewBox="0 0 22 22" fill="none" xmlns="http://www.w3.org/2000/svg">
<path d="M9.61885 3.24905C9.61885 3.94699 9.61885 4.64494 9.61885 5.31881C9.61885 5.96862 10.0761 6.4259 10.6778 6.4259C11.2795 6.4259 11.7368 5.99269 11.7368 5.31881C11.7368 3.92293 11.7368 2.50297 11.7368 1.10708C11.7368 0.457274 11.2795 0 10.6778 0C10.0521 0 9.61885 0.433206 9.61885 1.08302C9.59478 1.82909 9.61885 2.55111 9.61885 3.24905Z" fill="black"/>
<path d="M3.16897 11.7928C3.86691 11.7928 4.56485 11.7928 5.23873 11.7928C5.93668 11.7928 6.39395 11.3356 6.39395 10.7098C6.39395 10.1082 5.93668 9.67495 5.28687 9.65088C3.89098 9.65088 2.51916 9.65088 1.12327 9.65088C0.425324 9.65088 -0.0319498 10.0841 -0.00788275 10.7339C-0.00788275 11.3596 0.449391 11.7688 1.1714 11.7928C1.82121 11.8169 2.49509 11.7928 3.16897 11.7928Z" fill="black"/>
<path d="M18.1867 9.67494C17.4887 9.67494 16.7908 9.67494 16.1169 9.67494C15.419 9.67494 14.9617 10.1322 14.9858 10.758C15.0098 11.3596 15.443 11.7928 16.1169 11.7928C17.5128 11.7928 18.8846 11.7928 20.2805 11.7928C20.9785 11.7928 21.4357 11.3356 21.4117 10.7098C21.3876 10.1081 20.9544 9.67494 20.2805 9.67494C19.5585 9.65088 18.8606 9.67494 18.1867 9.67494Z" fill="black"/>
<path d="M6.12905 16.7988C6.61039 16.3174 7.1158 15.812 7.59714 15.3307C8.07848 14.8253 8.10255 14.1995 7.64527 13.7663C7.21207 13.3331 6.58632 13.3572 6.10498 13.8145C5.11823 14.7771 4.13149 15.7639 3.1688 16.7506C2.68746 17.256 2.6634 17.8818 3.12067 18.315C3.57794 18.7482 4.17962 18.7241 4.68503 18.2187C5.16637 17.7615 5.64771 17.2801 6.12905 16.7988Z" fill="black"/>
<path d="M15.2264 4.669C14.7451 5.15034 14.2397 5.65575 13.7584 6.13709C13.277 6.6425 13.277 7.26824 13.7343 7.70145C14.1675 8.13466 14.7932 8.11059 15.2746 7.62925C16.2613 6.66657 17.2481 5.67982 18.2108 4.69307C18.6921 4.18766 18.6921 3.56192 18.2348 3.12871C17.8016 2.69551 17.1759 2.71957 16.6945 3.20091C16.1891 3.68225 15.7078 4.18766 15.2264 4.669Z" fill="black"/>
<path d="M16.6706 15.2826C16.1892 14.8012 15.6838 14.2958 15.2025 13.8145C14.6971 13.3331 14.0713 13.3331 13.6381 13.7904C13.2049 14.2236 13.229 14.8493 13.7103 15.3307C14.673 16.3174 15.6598 17.3042 16.6465 18.2669C17.1519 18.7482 17.7777 18.7482 18.2109 18.2909C18.62 17.8337 18.62 17.232 18.1387 16.7506C17.6573 16.2452 17.176 15.7639 16.6706 15.2826Z" fill="black"/>
<path d="M6.10514 4.669C5.6238 4.18766 5.1184 3.68225 4.63705 3.20091C4.13165 2.71957 3.5059 2.71957 3.0727 3.17684C2.63949 3.61005 2.66356 4.23579 3.1449 4.71713C4.10758 5.70388 5.09433 6.69063 6.08108 7.65331C6.58648 8.13465 7.21223 8.13465 7.64543 7.67738C8.07864 7.24417 8.05457 6.61843 7.57323 6.13709C7.09189 5.65575 6.61055 5.17441 6.10514 4.669Z" fill="black"/>
<path d="M11.7368 18.2428C11.7368 17.5449 11.7368 16.8469 11.7368 16.173C11.7368 15.4751 11.2795 15.0178 10.6538 15.0419C10.0521 15.066 9.6189 15.4992 9.6189 16.173C9.6189 17.5689 9.6189 18.9408 9.6189 20.3366C9.6189 21.0105 10.0521 21.4437 10.6538 21.4678C11.3036 21.4919 11.7368 21.0346 11.7609 20.3366C11.7609 19.6146 11.7368 18.9167 11.7368 18.2428Z" fill="black"/>
</svg>
