<svg width="31" height="20" viewBox="0 0 31 20" fill="none" xmlns="http://www.w3.org/2000/svg">
<path d="M2.30769 0C2.0054 0 1.71844 0.0635 1.45433 0.168269L14.5072 11.5745C15.0714 12.0675 15.6724 12.0678 16.238 11.5745L29.3149 0.168269C29.0508 0.0635 28.7638 0 28.4615 0H2.30769ZM0.0240385 1.98315C0.00948846 2.0883 0 2.19842 0 2.30769V17.6923C0 18.9707 1.02925 20 2.30769 20H28.4615C29.74 20 30.7692 18.9707 30.7692 17.6923V2.30769C30.7692 2.19842 30.7597 2.0883 30.7452 1.98315L17.7524 13.3173C16.3968 14.4997 14.3483 14.5015 12.9928 13.3173L0.0240385 1.98315Z" fill="black"/>
</svg>
