<svg width="26" height="17" viewBox="0 0 26 17" fill="none" xmlns="http://www.w3.org/2000/svg">
<path d="M1.89808 0C1.64944 0 1.41342 0.0522288 1.19618 0.138401L11.9322 9.52006C12.3963 9.92549 12.8906 9.92578 13.3557 9.52006L24.1115 0.138401C23.8943 0.0522288 23.6583 0 23.4096 0H1.89808ZM0.0197716 1.63114C0.00780426 1.71763 0 1.8082 0 1.89808V14.5519C0 15.6034 0.846561 16.45 1.89808 16.45H23.4096C24.4611 16.45 25.3077 15.6034 25.3077 14.5519V1.89808C25.3077 1.8082 25.2999 1.71763 25.2879 1.63114L14.6014 10.9535C13.4864 11.926 11.8015 11.9275 10.6866 10.9535L0.0197716 1.63114Z" fill="black"/>
</svg>
