<svg width="30" height="30" viewBox="0 0 30 30" fill="none" xmlns="http://www.w3.org/2000/svg">
<path fill-rule="evenodd" clip-rule="evenodd" d="M12.4393 29.7925C13.3094 29.9314 14.1601 30 15.0127 30C18.9765 30 22.7327 28.4703 25.5839 25.6184C29.0626 22.1388 30.5919 17.3565 29.792 12.4701C28.7655 6.27736 23.7243 1.23471 17.5334 0.207997C12.6487 -0.591994 7.84952 0.93768 4.38863 4.4173C0.929309 7.89517 -0.601789 12.6778 0.215667 17.5656C1.24219 23.739 6.26761 28.7658 12.4393 29.7925ZM6.58036 24.6797C6.47489 24.5742 6.38876 24.488 6.28505 24.4001H6.30087V23.688C6.30087 20.8009 8.6317 18.4694 11.5005 18.4694H18.4736C21.3599 18.4694 23.689 20.8184 23.689 23.688V24.4177C23.6363 24.4704 23.5853 24.5179 23.5326 24.5654C23.4798 24.6146 23.4289 24.6621 23.3761 24.7131L23.3234 24.7482C20.9943 26.7315 18.0729 27.827 14.9949 27.827C11.9171 27.827 8.96235 26.7315 6.64894 24.7306L6.58036 24.6797ZM11.0486 6.92123C12.0576 5.77308 13.4656 5.14715 14.9773 5.14715L14.9949 5.16473C15.3253 5.16473 15.6734 5.18231 16.0039 5.25264C18.0376 5.63419 19.7251 7.32214 20.1065 9.35644C20.4546 11.2167 19.8288 13.0611 18.4208 14.2956C17.0128 15.514 15.0828 15.8956 13.2562 15.3048C11.7604 14.8178 10.5264 13.5835 10.0395 12.0872C9.44891 10.2445 9.81468 8.31398 11.0486 6.92123Z" fill="white"/>
</svg>
