<svg width="16" height="19" viewBox="0 0 16 19" fill="none" xmlns="http://www.w3.org/2000/svg">
<path d="M14.5 4C14.5 3.72386 14.2761 3.5 14 3.5H2C1.72386 3.5 1.5 3.72386 1.5 4V17C1.5 17.2761 1.72386 17.5 2 17.5H14C14.2761 17.5 14.5 17.2761 14.5 17V4ZM15.5 17C15.5 17.8284 14.8284 18.5 14 18.5H2C1.17157 18.5 0.5 17.8284 0.5 17V4C0.5 3.17157 1.17157 2.5 2 2.5H14C14.8284 2.5 15.5 3.17157 15.5 4V17Z" fill="black" stroke="black"/>
<path d="M7.5 6.5V7.5H3V6.5H7.5Z" fill="black" stroke="black"/>
<path d="M12 9.5V10.5L3 10.5L3 9.5L12 9.5Z" fill="black" stroke="black"/>
<path d="M12 12.5V13.5L3 13.5L3 12.5L12 12.5Z" fill="black" stroke="black"/>
<path d="M11.5 1V5H10.5V1H11.5Z" fill="black" stroke="black"/>
<path d="M5.5 1V5H4.5V1H5.5Z" fill="black" stroke="black"/>
</svg>
