<svg width="18" height="14" viewBox="0 0 18 14" fill="none" xmlns="http://www.w3.org/2000/svg">
<path d="M10.9943 13.5852C9.58262 13.5852 9.52044 12.7806 9.51791 12.7362L9.38532 11.3385H10.18C10.2966 11.3385 10.3908 11.2458 10.3908 11.1311C10.3908 11.0164 10.2966 10.9236 10.18 10.9236H0.632363C0.516219 10.9236 0.421575 10.8307 0.421575 10.7162V9.48461H9.469C9.58557 9.48461 9.67979 9.39189 9.67979 9.27719C9.67979 9.16249 9.58557 9.06978 9.469 9.06978H0.421575V0.622241C0.421575 0.507956 0.516219 0.414827 0.632363 0.414827H15.5633C15.6797 0.414827 15.7741 0.507956 15.7741 0.622241V4.31752C15.7741 4.43201 15.8683 4.52493 15.9849 4.52493C16.1014 4.52493 16.1957 4.43201 16.1957 4.31752V0.622241C16.1957 0.279179 15.9119 0 15.5633 0H0.632363C0.28372 0 0 0.279179 0 0.622241V10.7162C0 11.0593 0.28372 11.3385 0.632363 11.3385H6.81076L6.67733 12.7464C6.67543 12.7806 6.61325 13.5852 5.20161 13.5852C5.08525 13.5852 4.99082 13.6779 4.99082 13.7926C4.99082 13.9073 5.08525 14 5.20161 14H10.9943C11.1108 14 11.205 13.9073 11.205 13.7926C11.205 13.6779 11.1108 13.5852 10.9943 13.5852ZM6.64171 13.5852C7.07488 13.2297 7.09785 12.7748 7.09785 12.7748L7.23423 11.3385H8.96206L9.0976 12.7624C9.09781 12.7698 9.1212 13.2284 9.55521 13.5852H6.64171ZM14.1162 4.73007C11.9748 4.73007 10.2325 6.44434 10.2325 8.55145C10.2325 10.6588 11.9748 12.3733 14.1162 12.3733C16.2576 12.3733 18 10.6588 18 8.55145C18 6.44434 16.2578 4.73007 14.1162 4.73007ZM14.1162 11.9582C12.2071 11.9582 10.6541 10.43 10.6541 8.55125C10.6541 6.67291 12.2071 5.14469 14.1162 5.14469C16.0253 5.14469 17.5784 6.67291 17.5784 8.55125C17.5784 10.43 16.0253 11.9582 14.1162 11.9582ZM16.2062 9.6076C15.9465 9.70011 15.679 9.74699 15.4115 9.74699C14.1228 9.74699 13.0741 8.7151 13.0741 7.44698C13.0741 7.10039 13.1531 6.76396 13.3089 6.44662C13.3494 6.36407 13.3302 6.26493 13.2609 6.20312C13.1919 6.14131 13.0897 6.13135 13.01 6.17885C12.2173 6.6503 11.744 7.47353 11.744 8.38075C11.744 9.79967 12.9171 10.9539 14.3593 10.9539C15.1847 10.9539 15.9452 10.5798 16.4457 9.92764C16.5019 9.85422 16.5026 9.75342 16.4471 9.67958C16.3917 9.60574 16.2939 9.57691 16.2062 9.6076ZM14.3595 10.5391C13.15 10.5391 12.1658 9.57089 12.1658 8.38075C12.1658 7.85392 12.3564 7.36048 12.6947 6.97573C12.6667 7.13046 12.6527 7.28768 12.6527 7.44698C12.6527 8.94388 13.8905 10.1618 15.4117 10.1618C15.4773 10.1618 15.5428 10.1593 15.6082 10.1548C15.2463 10.4034 14.8146 10.5391 14.3595 10.5391Z" fill="black"/>
</svg>
